<?xml version="1.0" encoding="utf-8"?>
<svg height="31px" version="1.1" viewBox="-65.3594 -72.004 566.937 425.199" width="26.253px" preserveAspectRatio="xMidYMid slice" xmlns="http://www.w3.org/2000/svg">
  <g id="page1" transform="matrix(1.618525, 0.006795, -0.006772, 1.612745, -133.581696, -78.304657)" style="">
    <path d="M216.578 35.781C162.855 35.906 109.035 81.753 113.609 149.113C116.906 197.597 160.359 249.867 227.12 244.992C277.667 241.3 323.98 197.441 322.972 138.562C321.995 81.476 274.285 34.625 216.578 35.781M218.335 253.597C156.757 254.593 104.511 202.402 104.941 140.289C105.374 77.582 156.339 26.593 219.203 27.468C281.273 28.328 331.71 76.648 331.265 142.41C330.855 203.277 280.902 253.75 218.343 253.597ZM235.191 145.925C242.382 155.992 250.8 164.75 258.773 173.847C267.835 184.191 267.956 184.023 256.859 191.804C253.292 194.304 249.804 196.929 246.456 199.711C243.331 202.3 241.222 202.886 238.953 198.484C232.581 186.121 217.449 160.015 216.027 160.269C214.667 160.519 199.867 186.718 192.933 198.812C190.656 202.781 188.925 202.257 185.902 199.785C180.519 195.378 175.027 191.031 169.167 187.316C165.429 184.949 165.39 183.289 168.136 180.242C177.218 170.148 196.585 147.636 197.738 146.023C183.39 143.046 169.648 140.109 155.859 137.378C150.695 136.355 148.992 135.187 151.277 129.019C153.429 123.218 156.433 117.375 157.035 111.078C157.566 105.503 160.23 105.402 164.245 107.211C176.597 112.769 202.921 124.464 204.41 124.933C204.945 114.41 200.808 85.148 200.113 80.609C199.601 77.281 200.699 75.914 204.343 76.05C211.636 76.32 218.98 76.586 226.234 75.984C231.843 75.519 232.734 78.058 231.921 82.429C229.347 96.312 229.171 110.398 228.058 125.175C240.945 119.535 253.538 114.328 265.843 108.511C272.816 105.218 273.992 105.371 275.718 112.476C277.16 118.406 279.468 124.117 281.429 129.851C283.476 135.832 280.687 136.464 276.538 137.324C262.913 140.144 249.3 142.996 235.187 145.933" fill="#fcdb05"/>
    <path d="M216.579 35.781C162.856 35.906 109.036 81.753 113.61 149.113C116.907 197.597 160.36 249.867 227.121 244.992C277.668 241.3 323.981 197.441 322.973 138.562C321.996 81.476 274.286 34.625 216.579 35.781M218.336 253.597C156.758 254.593 104.512 202.402 104.942 140.289C105.375 77.582 156.34 26.593 219.204 27.468C281.274 28.328 331.711 76.648 331.266 142.41C330.856 203.277 280.903 253.75 218.344 253.597ZM235.192 145.925C242.383 155.992 250.801 164.75 258.774 173.847C267.836 184.191 267.957 184.023 256.86 191.804C253.293 194.304 249.805 196.929 246.457 199.711C243.332 202.3 241.223 202.886 238.954 198.484C232.582 186.121 217.45 160.015 216.028 160.269C214.668 160.519 199.868 186.718 192.934 198.812C190.657 202.781 188.926 202.257 185.903 199.785C180.52 195.378 175.028 191.031 169.168 187.316C165.43 184.949 165.391 183.289 168.137 180.242C177.219 170.148 196.586 147.636 197.739 146.023C183.391 143.046 169.649 140.109 155.86 137.378C150.696 136.355 148.993 135.187 151.278 129.019C153.43 123.218 156.434 117.375 157.036 111.078C157.567 105.503 160.231 105.402 164.246 107.211C176.598 112.769 202.922 124.464 204.411 124.933C204.946 114.41 200.809 85.148 200.114 80.609C199.602 77.281 200.7 75.914 204.344 76.05C211.637 76.32 218.981 76.586 226.235 75.984C231.844 75.519 232.735 78.058 231.922 82.429C229.348 96.312 229.172 110.398 228.059 125.175C240.946 119.535 253.539 114.328 265.844 108.511C272.817 105.218 273.993 105.371 275.719 112.476C277.161 118.406 279.469 124.117 281.43 129.851C283.477 135.832 280.688 136.464 276.539 137.324C262.914 140.144 249.301 142.996 235.188 145.933" fill="none" stroke="#000000" stroke-miterlimit="10.0375" stroke-width="0.799999"/>
  </g>
</svg>